<svg width="24" height="24" viewBox="0 0 24 24" fill="none" xmlns="http://www.w3.org/2000/svg">
<path fill-rule="evenodd" clip-rule="evenodd" d="M2.60541 4.03605C2.41952 4.08782 2.19311 4.29025 2.09295 4.49435L2.00072 4.68225L2.00033 10.4284C1.9999 16.79 1.98326 16.3791 2.25182 16.6415C2.51401 16.8975 2.5687 16.9082 3.71565 16.9289L4.74777 16.9474L6.05961 18.3925C7.52278 20.0043 7.5418 20.0205 7.94665 19.9952C8.12345 19.9842 8.20165 19.9578 8.31774 19.8701C8.39864 19.8089 9.05001 19.1263 9.76525 18.3532L11.0656 16.9474L16.1911 16.9289C21.9256 16.9081 21.4355 16.9333 21.74 16.6444C22.0179 16.3808 22.0001 16.8075 21.9996 10.4284L21.9992 4.68225L21.907 4.49435C21.8026 4.28173 21.5777 4.08674 21.375 4.03324C21.2003 3.9871 2.77127 3.98988 2.60541 4.03605ZM17.4079 7.5252C17.4915 7.6383 17.4915 8.09963 17.4079 8.21272L17.3472 8.29509H11.5614C6.2325 8.29509 5.77 8.29024 5.70422 8.23377C5.64633 8.18407 5.63277 8.11612 5.63277 7.87541C5.63277 7.38725 4.8721 7.44283 11.5546 7.44283H17.3472L17.4079 7.5252ZM17.4136 10.129C17.5072 10.2646 17.4782 10.7636 17.3724 10.837C17.309 10.881 16.4159 10.8889 11.5366 10.8889C6.23078 10.8889 5.77 10.8841 5.70422 10.8276C5.60703 10.7442 5.59937 10.1848 5.69414 10.0949C5.74941 10.0425 6.33465 10.0367 11.5526 10.0367H17.3498L17.4136 10.129ZM13.7242 12.6643C13.8083 12.7289 13.8164 12.7635 13.8164 13.0563C13.8164 13.3315 13.8055 13.3851 13.7406 13.4302C13.6763 13.4748 13.0662 13.4828 9.72689 13.4828C5.14816 13.4828 5.63277 13.5346 5.63277 13.0452C5.63277 12.7564 5.66808 12.6601 5.78902 12.6192C5.82125 12.6082 7.59911 12.598 9.73978 12.5964C13.5162 12.5935 13.6347 12.5956 13.7242 12.6643Z" fill="#BDBDBD"/>
</svg>
