<svg width="24" height="24" viewBox="0 0 24 24" fill="none" xmlns="http://www.w3.org/2000/svg">
<path d="M4.97868 8.38623H2.25591C1.88159 8.38623 1.5752 8.69108 1.5752 9.0669V21.3194C1.5752 21.6951 1.88025 22 2.25591 22H4.97868C5.35434 22 5.65939 21.6951 5.65939 21.3194V9.0669C5.65939 8.69108 5.35296 8.38623 4.97868 8.38623Z" fill="#BDBDBD"/>
<path d="M20.7252 8.38617C20.6155 8.3676 15.4826 8.38617 15.4826 8.38617L16.1996 6.4302C16.6943 5.07928 16.374 3.01657 15.0014 2.28324C14.5544 2.04445 13.93 1.92452 13.4266 2.05125C13.1378 2.1239 12.8841 2.31505 12.7329 2.57115C12.5589 2.8657 12.5769 3.20951 12.5149 3.53611C12.3579 4.36448 11.9665 5.15209 11.3603 5.74325C10.3035 6.77397 7.02051 9.74751 7.02051 9.74751V20.6387H18.3654C19.8963 20.6396 20.8995 18.9301 20.1445 17.5947C21.0445 17.0183 21.3523 15.8042 20.8252 14.872C21.7252 14.2955 22.033 13.0814 21.5059 12.1492C23.0588 11.1546 22.5396 8.69305 20.7252 8.38617Z" fill="#BDBDBD"/>
</svg>
