<svg width="20" height="15" viewBox="0 0 20 15" fill="none" xmlns="http://www.w3.org/2000/svg">
<path fill-rule="evenodd" clip-rule="evenodd" d="M10 0.681641C5.45455 0.681641 1.57273 3.50891 0 7.49982C1.57273 11.4907 5.45455 14.318 10 14.318C14.5455 14.318 18.4273 11.4907 20 7.49982C18.4273 3.50891 14.5455 0.681641 10 0.681641ZM10 12.0453C7.49091 12.0453 5.45455 10.0089 5.45455 7.49982C5.45455 4.99073 7.49091 2.95437 10 2.95437C12.5091 2.95437 14.5455 4.99073 14.5455 7.49982C14.5455 10.0089 12.5091 12.0453 10 12.0453ZM7.27273 7.49982C7.27273 5.99073 8.49091 4.77255 10 4.77255C11.5091 4.77255 12.7273 5.99073 12.7273 7.49982C12.7273 9.00891 11.5091 10.2271 10 10.2271C8.49091 10.2271 7.27273 9.00891 7.27273 7.49982Z" fill="#BDBDBD"/>
</svg>
