<svg width="1471" height="972" viewBox="0 0 1471 972" fill="none" xmlns="http://www.w3.org/2000/svg">
<path fill-rule="evenodd" clip-rule="evenodd" d="M79.8268 11.2848C75.9541 26.761 75.1597 48.3804 77.8814 64.2389C84.3509 101.92 107.076 135.898 139.499 156.368C156.664 167.204 168.685 172.186 206.075 183.963C269.684 203.996 311.9 215.593 385.598 233.281C435.196 245.184 444.909 248.6 462.864 260.449C474.753 268.296 488.719 282.158 497.133 294.464C500.624 299.569 503.479 304.171 503.479 304.691C503.479 305.764 498.843 306.585 458.409 312.677C327.419 332.414 200.118 341.226 62.3031 340.095C4.00548 339.615 0.0812988 339.717 0.0812988 341.707C0.0812988 345.465 3.76602 360.693 6.6229 368.745C11.0711 381.282 21.7004 399.691 30.6701 410.395C54.7302 439.104 88.8351 456.749 128.602 461.065C139.654 462.265 146.833 462.147 171.17 460.368C241.499 455.226 324.894 445.071 394.689 433.149C443.476 424.814 459.023 424.739 485.455 432.713C497.226 436.266 524.477 449.901 522.697 451.349C521.375 452.425 480.266 476.294 461.556 486.85C365.347 541.128 261.799 590.351 159.083 630.638C147.045 635.359 136.787 639.587 136.285 640.035C133.806 642.248 157.555 664.779 172.173 674.081C209.249 697.677 257.439 703.423 299.572 689.272C320.281 682.317 400.4 642.863 464.356 608.125C502.946 587.165 516.109 582.135 538.452 579.805C553.788 578.206 571.715 579.273 571.715 581.784C571.715 583.405 550.163 616.696 530.047 646.144C506.047 681.28 473.113 726.055 444.592 762.326C435.105 774.39 427.053 784.984 426.698 785.867C425.296 789.356 453.277 793.14 473.868 792.243C517.196 790.358 556.388 770.472 582.284 737.229C595.254 720.582 600.451 709.598 626.458 643.903C633.569 625.943 639.116 613.646 640.204 613.437C641.718 613.145 642.017 616.286 641.955 631.874C641.891 648.258 642.268 651.843 644.897 659.882C655.624 692.681 680.285 714.911 715.04 723.109L726.854 725.897L721.303 726.811C713.064 728.169 699.376 735.211 692.265 741.75C678.479 754.426 671.711 769.372 671.729 787.098C671.744 802.71 675.195 811.46 689.417 831.962C714.663 868.353 732.07 917.275 734.8 959.503C735.25 966.442 735.752 971.973 735.918 971.795C736.084 971.616 736.884 964.833 737.697 956.72C742.199 911.782 758.199 868.287 784.495 829.504C795.724 812.941 799.557 803.924 800.534 791.772C801.987 773.685 795.543 756.934 782.088 743.823C773.74 735.688 760.228 728.411 750.58 726.855C745.413 726.022 742.129 722.69 743.388 719.559C743.738 718.687 743.047 711.401 741.849 703.37L739.675 688.767L730.046 687.86C703.149 685.324 682.828 672.573 671.631 651.206C663.302 635.312 663.425 638.193 667.084 543.727C668.813 499.106 667.945 333.938 665.773 294.211C663.658 255.51 660.01 240.755 647.648 220.891C636.945 203.692 615.249 185.538 596.322 177.95C591.64 176.073 577.38 171.971 564.634 168.834C402.199 128.872 252.615 76.9691 97.6929 6.81193L82.6515 0L79.8268 11.2848Z" fill="url(#paint0_linear_338_5415)"/>
<path fill-rule="evenodd" clip-rule="evenodd" d="M1391.25 11.2848C1395.12 26.761 1395.92 48.3804 1393.2 64.2389C1386.73 101.92 1364.03 135.898 1331.64 156.368C1314.49 167.204 1302.49 172.186 1265.13 183.963C1201.59 203.996 1159.42 215.593 1085.79 233.281C1036.24 245.184 1026.54 248.6 1008.6 260.449C996.727 268.296 982.776 282.158 974.369 294.464C970.883 299.569 968.03 304.171 968.03 304.691C968.03 305.764 972.661 306.585 1013.05 312.677C1143.91 332.414 1271.08 341.226 1408.76 340.095C1467 339.615 1470.92 339.717 1470.92 341.707C1470.92 345.465 1467.24 360.693 1464.38 368.745C1459.94 381.282 1449.32 399.691 1440.36 410.395C1416.32 439.104 1382.25 456.749 1342.53 461.065C1331.49 462.265 1324.32 462.147 1300 460.368C1229.75 455.226 1146.43 445.071 1076.71 433.149C1027.97 424.814 1012.44 424.739 986.036 432.713C974.277 436.266 947.054 449.901 948.831 451.349C950.152 452.425 991.219 476.294 1009.91 486.85C1106.02 541.128 1209.47 590.351 1312.08 630.638C1324.1 635.359 1334.35 639.587 1334.85 640.035C1337.33 642.248 1313.6 664.779 1299 674.081C1261.96 697.677 1213.82 703.423 1171.73 689.272C1151.04 682.317 1071.01 642.863 1007.11 608.125C968.562 587.165 955.413 582.135 933.093 579.805C917.772 578.206 899.863 579.273 899.863 581.784C899.863 583.405 921.394 616.696 941.489 646.144C965.465 681.28 998.365 726.055 1026.86 762.326C1036.34 774.39 1044.38 784.984 1044.73 785.867C1046.13 789.356 1018.18 793.14 997.612 792.243C954.327 790.358 915.175 770.472 889.305 737.229C876.349 720.582 871.156 709.598 845.176 643.903C838.072 625.943 832.53 613.646 831.444 613.437C829.931 613.145 829.633 616.286 829.694 631.874C829.759 648.258 829.382 651.843 826.756 659.882C816.039 692.681 791.403 714.911 756.683 723.109L744.881 725.897L750.427 726.811C758.657 728.169 772.332 735.211 779.435 741.75C793.207 754.426 799.969 769.372 799.951 787.098C799.935 802.71 796.488 811.46 782.28 831.962C757.06 868.353 739.671 917.275 736.943 959.503C736.494 966.442 735.992 971.973 735.827 971.795C735.661 971.616 734.862 964.833 734.049 956.72C729.551 911.782 713.568 868.287 687.298 829.504C676.081 812.941 672.252 803.924 671.276 791.772C669.825 773.685 676.262 756.934 689.704 743.823C698.043 735.688 711.541 728.411 721.18 726.855C726.341 726.022 729.622 722.69 728.364 719.559C728.014 718.687 728.705 711.401 729.901 703.37L732.074 688.767L741.693 687.86C768.562 685.324 788.863 672.573 800.048 651.206C808.369 635.312 808.246 638.193 804.591 543.727C802.864 499.106 803.731 333.938 805.9 294.211C808.014 255.51 811.657 240.755 824.007 220.891C834.699 203.692 856.373 185.538 875.281 177.95C879.959 176.073 894.204 171.971 906.937 168.834C1069.21 128.872 1218.64 76.9691 1373.41 6.81193L1388.43 0L1391.25 11.2848Z" fill="url(#paint1_linear_338_5415)"/>
<defs>
<linearGradient id="paint0_linear_338_5415" x1="400.408" y1="0" x2="400.408" y2="971.799" gradientUnits="userSpaceOnUse">
<stop stop-opacity="0.03"/>
<stop offset="1" stop-opacity="0"/>
</linearGradient>
<linearGradient id="paint1_linear_338_5415" x1="1071" y1="0" x2="1071" y2="971.799" gradientUnits="userSpaceOnUse">
<stop stop-opacity="0.03"/>
<stop offset="1" stop-opacity="0"/>
</linearGradient>
</defs>
</svg>
