<svg width="21" height="18" viewBox="0 0 21 18" fill="none" xmlns="http://www.w3.org/2000/svg">
<path fill-rule="evenodd" clip-rule="evenodd" d="M0.537007 0.0663106C0.325929 0.154966 0.13209 0.358694 0.0520536 0.576032C0.0051269 0.703482 -0.00521645 0.77842 0.00215286 0.937726C0.0180232 1.28051 0.186359 1.54052 0.491422 1.69348L0.667365 1.78168L1.75292 1.7895L2.83847 1.7973L2.86426 1.89667C2.87845 1.9513 3.41072 4.11662 4.04714 6.70844C5.01165 10.6367 5.21965 11.4526 5.297 11.6114C5.51771 12.0646 5.94295 12.4113 6.43532 12.5395C6.60345 12.5833 6.73125 12.5926 7.18018 12.5942L7.72208 12.5961L7.49271 12.6453C7.17423 12.7137 7.02124 12.7678 6.75612 12.9058C6.09089 13.2522 5.60178 13.8634 5.38788 14.6156C5.33403 14.805 5.32722 14.8847 5.32851 15.3117C5.32985 15.7586 5.33524 15.8115 5.40178 16.0319C5.68763 16.9791 6.38805 17.6664 7.33585 17.9297C7.62731 18.0107 8.2906 18.0107 8.58206 17.9297C9.08733 17.7894 9.50877 17.5376 9.85505 17.1692C10.0996 16.9091 10.2268 16.7215 10.3704 16.4095C10.5499 16.0196 10.587 15.8332 10.5887 15.3117C10.59 14.916 10.5822 14.8264 10.5293 14.6285C10.3363 13.9075 9.85637 13.2842 9.23079 12.9424C8.96473 12.797 8.79229 12.7313 8.48533 12.6585L8.22214 12.5961L11.9463 12.5969C15.5331 12.5977 15.6626 12.5995 15.4599 12.6438C14.8799 12.7707 14.4378 13.0094 14.0584 13.4004C13.732 13.7368 13.5514 14.0349 13.4091 14.472C12.8278 16.257 14.2282 18.1066 16.0767 17.9952C16.754 17.9544 17.3257 17.6851 17.8154 17.1761C18.3524 16.618 18.6053 15.9485 18.57 15.1778C18.5127 13.9222 17.65 12.9126 16.4073 12.6468L16.1705 12.5961L16.71 12.5937C17.3324 12.591 17.5111 12.562 17.7932 12.4179C18.1802 12.2202 18.4723 11.9117 18.6324 11.5315C18.6618 11.4615 19.0298 10.1193 19.4501 8.54879C19.8703 6.97829 20.391 5.03404 20.6071 4.22821C20.8232 3.42238 21 2.75022 21 2.73454C21 2.71442 18.8145 2.70601 13.5943 2.70601H6.18866L6.38424 3.50308C6.49178 3.94148 6.5915 4.34537 6.60584 4.40062L6.63187 4.50109H12.6732H18.7144L18.6978 4.57476C18.6886 4.6153 18.3115 6.02891 17.8597 7.71615L17.0383 10.7839L11.9591 10.7906L6.87988 10.7973L5.69839 5.99478C4.46703 0.989543 4.47843 1.0315 4.26406 0.714333C4.0943 0.463156 3.73384 0.199227 3.39261 0.0762773C3.22441 0.0156734 3.20028 0.0145213 1.95823 0.00731423L0.694921 0L0.537007 0.0663106ZM8.34679 14.4918C8.51447 14.5751 8.6763 14.7443 8.75921 14.9232C8.81603 15.0459 8.82748 15.1089 8.82748 15.2989C8.82748 15.5026 8.81822 15.5463 8.74139 15.7052C8.58545 16.0277 8.32039 16.1929 7.95895 16.1929C7.78841 16.1929 7.72029 16.1798 7.60049 16.1238C7.40162 16.0309 7.26095 15.8958 7.16791 15.7084C7.09961 15.5708 7.09069 15.5251 7.09056 15.3117C7.09048 15.1641 7.10501 15.0342 7.12801 14.9768C7.22352 14.7385 7.42199 14.5435 7.65629 14.4576C7.8317 14.3933 8.1834 14.4108 8.34679 14.4918ZM16.3294 14.5007C16.4913 14.5854 16.667 14.7743 16.7422 14.9441C16.8284 15.1389 16.8236 15.4765 16.7319 15.6774C16.6074 15.9498 16.394 16.1191 16.0964 16.1816C15.4189 16.324 14.8598 15.6355 15.1069 14.9632C15.1807 14.7625 15.3851 14.5496 15.5785 14.4719C15.787 14.3882 16.1406 14.4017 16.3294 14.5007Z" fill="#3B3B3B"/>
</svg>
