<svg width="1710" height="278" viewBox="0 0 1710 278" fill="none" xmlns="http://www.w3.org/2000/svg">
<path d="M241.978 6.18637C241.978 21.0079 241.464 43.369 240.439 73.2698C239.413 103.171 238.9 125.596 238.9 140.547C238.9 154.595 239.028 175.667 239.285 203.764C239.541 231.731 239.669 252.739 239.669 266.787C239.669 271.04 238.066 273.167 234.86 273.167C232.937 273.167 230.052 272.974 226.205 272.587C222.358 272.2 219.472 272.007 217.549 272.007C215.497 272.007 212.356 272.2 208.124 272.587C203.892 272.974 200.75 273.167 198.699 273.167C196.39 273.167 193.633 271.04 190.427 266.787C162.729 229.282 120.732 173.347 64.4375 98.9819C55.7176 87.6402 50.6524 81.325 49.2419 80.0362C47.9595 80.0362 47.3183 82.6783 47.3183 87.9625C47.3183 107.81 47.639 137.647 48.2801 177.471C48.9213 217.167 49.2419 246.939 49.2419 266.787C49.2419 271.04 47.9595 273.167 45.3948 273.167C43.2148 273.167 39.8808 272.974 35.3926 272.587C30.9044 272.2 27.5703 272.007 25.3903 272.007C23.0821 272.007 19.6197 272.2 15.0033 272.587C10.5151 272.974 7.11693 273.167 4.80872 273.167C1.60287 273.167 0 271.878 0 269.3C0 255.123 0.64116 233.793 1.9235 205.31C3.33407 176.698 4.03938 155.239 4.03938 140.933C4.03938 125.338 3.46231 97.242 2.3082 56.644C2.05173 46.0756 1.41057 30.223 0.3847 9.08623L0.192317 6.57302C0.0640834 4.63978 1.60287 3.60872 4.80872 3.47984C13.1439 3.35095 19.6839 3.09318 24.4285 2.70653C26.2238 2.57765 29.6221 2.06212 34.6232 1.15994C38.8549 0.386644 42.189 0 44.6255 0C45.7796 0 47.7672 1.86879 50.5883 5.60639C80.0822 46.3333 125.221 106.908 186.003 187.331C188.696 190.682 191.197 193.582 193.505 196.031C194.403 190.618 194.852 178.245 194.852 158.912C194.852 142.158 194.21 117.025 192.928 83.516C191.774 50.0065 191.197 24.9388 191.197 8.31294C191.197 4.05981 192.479 1.93324 195.044 1.93324C197.352 1.93324 200.814 2.12656 205.431 2.51321C210.176 2.89986 213.702 3.09318 216.01 3.09318C218.447 3.09318 222.101 2.89986 226.974 2.51321C231.847 2.12656 235.502 1.93324 237.938 1.93324C240.631 1.93324 241.978 3.35095 241.978 6.18637Z" fill="black" fill-opacity="0.02"/>
<path d="M469.336 98.2086C469.336 98.7242 469.144 99.8841 468.759 101.688C463.758 131.203 461.257 156.657 461.257 178.051C461.257 179.34 462.861 208.274 466.066 264.854L466.259 267.56C466.387 271.298 464.656 273.167 461.065 273.167C457.603 273.167 452.281 273.554 445.1 274.327C438.047 275.229 432.79 275.68 429.327 275.68C426.891 275.68 425.031 271.169 423.749 262.147C422.467 253.126 421.248 248.615 420.094 248.615C419.325 248.615 415.863 251.128 409.708 256.154C402.142 262.341 395.089 267.045 388.549 270.267C378.418 275.422 368.288 278 358.157 278C333.28 278 312.314 268.012 295.259 248.035C279.101 228.96 271.022 206.728 271.022 181.338C271.022 152.726 279.165 129.076 295.451 110.388C312.506 90.9268 334.947 81.1961 362.774 81.1961C382.394 81.1961 399.513 88.0269 414.132 101.688C416.312 104.266 419.71 108.004 424.326 112.901C424.711 113.288 425.096 113.481 425.48 113.481C426.25 113.481 427.34 109.421 428.75 101.302C430.161 93.1822 431.956 89.1224 434.136 89.1224C437.598 89.1224 444.074 90.089 453.564 92.0222C464.079 94.3421 469.336 96.4043 469.336 98.2086ZM420.287 179.018C420.287 163.166 415.606 149.568 406.245 138.227C396.371 125.983 383.74 119.861 368.352 119.861C352.964 119.861 340.141 125.918 329.882 138.033C320.008 149.633 315.071 163.294 315.071 179.018C315.071 194.613 320.008 208.146 329.882 219.616C340.141 231.602 352.964 237.595 368.352 237.595C383.355 237.595 395.922 231.473 406.053 219.229C415.542 207.759 420.287 194.355 420.287 179.018Z" fill="black" fill-opacity="0.02"/>
<path d="M793.255 266.014C793.255 271.04 791.781 273.554 788.831 273.554C786.908 273.554 783.958 273.36 779.983 272.974C776.136 272.587 773.187 272.394 771.135 272.394C768.955 272.394 765.685 272.522 761.325 272.78C756.965 273.038 753.695 273.167 751.515 273.167C748.822 273.167 747.476 270.138 747.476 264.081C747.476 258.152 747.668 249.324 748.053 237.595C748.566 225.738 748.822 216.845 748.822 210.917C748.822 178.309 748.694 160.137 748.438 156.399C747.412 143.124 744.719 133.974 740.359 128.947C735.358 123.534 726.445 120.828 713.622 120.828C705.543 120.828 696.439 124.694 686.308 132.427C675.793 140.547 670.343 148.537 669.958 156.399C669.445 166.452 669.189 184.818 669.189 211.497C669.189 217.812 669.445 227.285 669.958 239.915C670.471 252.546 670.728 262.019 670.728 268.334C670.728 271.814 669.574 273.554 667.265 273.554C664.957 273.554 661.559 273.36 657.071 272.974C652.711 272.587 649.377 272.394 647.069 272.394C645.017 272.394 642.003 272.522 638.028 272.78C634.053 273.038 631.039 273.167 628.988 273.167C626.423 273.167 625.141 271.298 625.141 267.56C625.141 261.374 625.333 252.095 625.718 239.722C626.102 227.22 626.295 217.876 626.295 211.69V165.099C626.295 150.535 624.564 140.16 621.101 133.974C616.228 125.21 606.931 120.828 593.21 120.828C585.132 120.828 575.514 124.243 564.358 131.074C552.047 138.549 545.892 146.089 545.892 153.693V210.143C545.892 216.587 545.956 226.189 546.084 238.949C546.213 251.708 546.277 261.245 546.277 267.56C546.277 271.298 544.802 273.167 541.853 273.167H506.075C503.511 273.167 502.228 271.427 502.228 267.947C502.228 257.508 502.292 241.848 502.421 220.969C502.549 199.962 502.613 184.238 502.613 173.798C502.613 150.213 500.112 126.692 495.111 103.235C494.727 101.56 494.534 100.206 494.534 99.1752C494.534 97.4998 495.111 96.5331 496.265 96.2754C501.01 95.7599 507.935 94.7932 517.039 93.3755C521.271 92.0867 527.619 90.669 536.082 89.1224L537.621 88.9291C539.16 88.9291 540.57 93.5044 541.853 102.655C543.263 111.677 544.482 116.188 545.507 116.188C545.507 116.188 548.713 113.352 555.125 107.682C562.691 101.108 570.256 95.8887 577.822 92.0222C588.722 86.3514 599.622 83.516 610.522 83.516C640.016 83.516 658.802 95.631 666.881 119.861C674.831 109.55 684.705 101.044 696.503 94.3421C709.07 87.1247 721.508 83.516 733.819 83.516C757.542 83.516 773.956 90.4757 783.061 104.395C789.601 114.706 792.871 131.009 792.871 153.306C792.871 157.559 792.742 164.132 792.486 173.025C792.229 181.918 792.101 188.491 792.101 192.744C792.101 200.864 792.294 213.108 792.678 229.476C793.063 245.715 793.255 257.894 793.255 266.014Z" fill="black" fill-opacity="0.02"/>
<path d="M1018.31 98.2086C1018.31 98.7242 1018.11 99.8841 1017.73 101.688C1012.73 131.203 1010.23 156.657 1010.23 178.051C1010.23 179.34 1011.83 208.274 1015.04 264.854L1015.23 267.56C1015.36 271.298 1013.63 273.167 1010.03 273.167C1006.57 273.167 1001.25 273.554 994.07 274.327C987.017 275.229 981.759 275.68 978.297 275.68C975.861 275.68 974.001 271.169 972.719 262.147C971.436 253.126 970.218 248.615 969.064 248.615C968.295 248.615 964.832 251.128 958.677 256.154C951.111 262.341 944.058 267.045 937.519 270.267C927.388 275.422 917.258 278 907.127 278C882.25 278 861.283 268.012 844.228 248.035C828.071 228.96 819.992 206.728 819.992 181.338C819.992 152.726 828.135 129.076 844.421 110.388C861.476 90.9268 883.917 81.1961 911.744 81.1961C931.363 81.1961 948.483 88.0269 963.101 101.688C965.281 104.266 968.679 108.004 973.296 112.901C973.68 113.288 974.065 113.481 974.45 113.481C975.219 113.481 976.309 109.421 977.72 101.302C979.131 93.1822 980.926 89.1224 983.106 89.1224C986.568 89.1224 993.044 90.089 1002.53 92.0222C1013.05 94.3421 1018.31 96.4043 1018.31 98.2086ZM969.257 179.018C969.257 163.166 964.576 149.568 955.215 138.227C945.341 125.983 932.71 119.861 917.322 119.861C901.934 119.861 889.11 125.918 878.852 138.033C868.977 149.633 864.04 163.294 864.04 179.018C864.04 194.613 868.977 208.146 878.852 219.616C889.11 231.602 901.934 237.595 917.322 237.595C932.325 237.595 944.892 231.473 955.023 219.229C964.512 207.759 969.257 194.355 969.257 179.018Z" fill="black" fill-opacity="0.02"/>
<path d="M1258.17 271.62C1258.17 272.651 1257.14 273.167 1255.09 273.167C1252.65 273.167 1248.93 272.974 1243.93 272.587C1238.93 272.2 1235.21 272.007 1232.78 272.007C1230.08 272.007 1226.04 272.2 1220.66 272.587C1215.4 272.974 1211.43 273.167 1208.73 273.167C1205.78 273.167 1203.54 271.556 1202 268.334C1197.9 259.57 1186.23 232.44 1166.99 186.944C1165.07 182.305 1160.39 179.469 1152.95 178.438C1151.28 178.309 1145.45 178.245 1135.45 178.245C1117.75 178.245 1107.24 178.503 1103.9 179.018C1101.21 179.405 1099.86 182.691 1099.86 188.878C1099.86 197.899 1100.25 211.432 1101.02 229.476C1101.91 247.39 1102.36 260.794 1102.36 269.687C1102.36 272.394 1101.08 273.747 1098.52 273.747C1095.95 273.747 1092.04 273.489 1086.78 272.974C1081.65 272.329 1077.74 272.007 1075.05 272.007C1072.87 272.007 1069.54 272.2 1065.05 272.587C1060.56 272.974 1057.22 273.167 1055.04 273.167C1051.84 273.167 1050.24 271.685 1050.24 268.72C1050.24 254.414 1050.88 232.955 1052.16 204.344C1053.57 175.603 1054.28 154.079 1054.28 139.773C1054.28 99.0464 1052.8 55.6129 1049.85 9.47288L1049.66 6.37969C1049.53 3.80204 1052.22 2.51321 1057.74 2.51321C1068.77 2.51321 1085.24 2.25545 1107.17 1.73991C1129.23 1.0955 1145.71 0.773301 1156.61 0.773301C1185.07 0.773301 1207.9 7.60407 1225.08 21.2656C1244.06 36.3449 1253.55 57.7394 1253.55 85.4492C1253.55 104.524 1250.99 119.539 1245.86 130.494C1240.47 142.093 1230.47 153.113 1215.85 163.552C1213.41 165.228 1212.2 166.839 1212.2 168.385C1212.2 170.19 1219.83 187.331 1235.09 219.809C1250.47 252.288 1258.17 269.558 1258.17 271.62ZM1205.46 96.2754C1205.46 72.9476 1198.8 57.3528 1185.46 49.491C1175.59 43.6912 1157.82 40.7914 1132.18 40.7914C1111.4 40.7914 1100.82 42.4669 1100.44 45.8178C1099.54 52.7775 1099.09 71.401 1099.09 101.688V138.613C1099.48 138.871 1100.31 139.129 1101.59 139.387C1103.9 139.644 1107.69 139.967 1112.94 140.353C1125.12 140.998 1138.27 141.32 1152.37 141.32C1187.77 141.32 1205.46 126.305 1205.46 96.2754Z" fill="black" fill-opacity="0.02"/>
<path d="M1462.25 97.822C1462.25 107.23 1461.87 121.472 1461.1 140.547C1460.33 159.492 1459.94 173.734 1459.94 183.271C1459.94 192.68 1460.2 206.792 1460.71 225.609C1461.35 244.297 1461.68 258.345 1461.68 267.754C1461.68 270.331 1460.46 272.007 1458.02 272.78C1456.99 273.038 1443.98 273.167 1418.97 273.167C1417.43 273.167 1416.47 268.334 1416.09 258.668C1415.83 249.001 1415.13 244.168 1413.97 244.168C1413.33 244.168 1412.37 244.748 1411.09 245.908C1389.67 264.596 1368.51 273.94 1347.61 273.94C1319.27 273.94 1300.55 263.63 1291.44 243.008C1285.8 230.249 1282.98 207.308 1282.98 174.185C1282.98 144.284 1285.35 118.959 1290.1 98.2086C1291.25 93.1822 1293.37 90.669 1296.45 90.669C1300.16 90.669 1305.74 90.7334 1313.18 90.8623C1320.62 90.9912 1326.2 91.0556 1329.91 91.0556C1332.48 91.0556 1333.76 92.4733 1333.76 95.3088C1333.76 100.335 1332.93 108.713 1331.26 120.441C1329.47 132.943 1328.5 141.771 1328.38 146.926C1327.99 154.659 1327.8 163.166 1327.8 172.445C1327.8 195 1329.4 210.143 1332.61 217.876C1338.12 231.796 1350.37 238.755 1369.35 238.755C1377.43 238.755 1386.98 234.76 1398.01 226.769C1409.68 218.392 1415.7 210.337 1416.09 202.604C1416.73 192.937 1417.05 158.912 1417.05 100.529C1417.05 94.2133 1419.68 91.0556 1424.94 91.0556H1456.67C1460.39 91.0556 1462.25 93.3111 1462.25 97.822Z" fill="black" fill-opacity="0.02"/>
<path d="M1635.75 97.822C1635.75 100.657 1634.28 106.973 1631.33 116.768C1628.38 126.563 1626.33 131.46 1625.17 131.46C1619.4 128.883 1613.57 126.305 1607.67 123.727C1601.9 121.15 1595.55 119.861 1588.63 119.861C1572.85 119.861 1559.71 125.725 1549.19 137.453C1538.68 149.182 1533.42 163.037 1533.42 179.018C1533.42 194.742 1538.68 208.339 1549.19 219.809C1559.97 231.667 1573.11 237.595 1588.63 237.595C1597.22 237.595 1605.68 235.469 1614.02 231.216C1622.35 226.962 1626.01 224.836 1624.98 224.836C1626.65 224.836 1628.51 230.249 1630.56 241.075C1632.48 250.87 1633.44 257.637 1633.44 261.374C1633.44 265.37 1625.94 269.3 1610.94 273.167C1598.37 276.389 1589.08 278 1583.05 278C1556.63 278 1534.32 268.076 1516.11 248.228C1498.29 228.896 1489.37 205.826 1489.37 179.018C1489.37 151.695 1498.09 128.496 1515.53 109.421C1533.49 89.8313 1555.86 80.0362 1582.66 80.0362C1600.62 80.0362 1617.03 84.6115 1631.91 93.7622C1634.47 95.3088 1635.75 96.662 1635.75 97.822Z" fill="black" fill-opacity="0.02"/>
<path d="M1710 41.9513C1710 57.8039 1701.22 65.7302 1683.65 65.7302C1665.82 65.7302 1656.91 57.8039 1656.91 41.9513C1656.91 34.8628 1659.67 28.9986 1665.18 24.3588C1670.31 19.9768 1676.47 17.7858 1683.65 17.7858C1690.83 17.7858 1696.98 20.0413 1702.11 24.5521C1707.37 29.063 1710 34.8628 1710 41.9513ZM1708.65 94.3421C1708.65 104.266 1708.01 119.281 1706.73 139.387C1705.58 159.363 1705 174.378 1705 184.431C1705 193.84 1705.19 207.952 1705.58 226.769C1705.96 245.457 1706.15 259.441 1706.15 268.72C1706.15 271.427 1705 272.78 1702.69 272.78H1665.18C1662.49 272.78 1661.14 270.138 1661.14 264.854C1661.14 255.961 1661.34 242.622 1661.72 224.836C1662.23 206.921 1662.49 193.453 1662.49 184.431C1662.49 174.378 1661.72 159.299 1660.18 139.193C1658.77 119.088 1658.07 104.008 1658.07 93.9555C1658.07 91.7645 1659.41 90.669 1662.1 90.669C1664.41 90.669 1667.94 90.9912 1672.68 91.6356C1677.56 92.28 1681.21 92.6022 1683.65 92.6022C1686.08 92.6022 1689.67 92.28 1694.42 91.6356C1699.29 90.9912 1702.95 90.669 1705.38 90.669C1707.56 90.669 1708.65 91.8934 1708.65 94.3421Z" fill="black" fill-opacity="0.02"/>
</svg>
